<?xml version="1.0" encoding="iso-8859-1"?>
<!-- Generator: Adobe Illustrator 18.1.1, SVG Export Plug-In . SVG Version: 6.00 Build 0)  -->
<svg version="1.1" id="Capa_1" xmlns="http://www.w3.org/2000/svg" xmlns:xlink="http://www.w3.org/1999/xlink" x="0px" y="0px"
	 viewBox="0 0 436.303 436.303" style="enable-background:new 0 0 436.303 436.303;" xml:space="preserve">
<g>
	<g>
		<path style="fill:#010002;" d="M218.155,112.792c-30.544,0-55.396,24.852-55.396,55.402s24.852,55.402,55.396,55.402
			c30.55,0,55.402-24.852,55.402-55.402C273.551,137.644,248.699,112.792,218.155,112.792z M218.155,208.345
			c-22.131,0-40.139-18.014-40.139-40.157c0-22.131,18.008-40.145,40.139-40.145c22.137,0,40.145,18.008,40.145,40.145
			C258.294,190.331,240.292,208.345,218.155,208.345z"/>
		<path style="fill:#010002;" d="M218.155,0C132.441,0,62.706,69.735,62.706,155.449c0,76.609,114.224,236.026,137.125,267.208
			l5.108,6.939c3.073,4.201,8.013,6.707,13.217,6.707c5.209,0,10.144-2.5,13.199-6.671l5.126-6.975
			c14.04-19.088,137.119-188.75,137.119-267.208C373.598,69.735,303.869,0,218.155,0z M218.155,235.524
			c-37.126,0-67.33-30.204-67.33-67.336s30.204-67.336,67.33-67.336s67.33,30.204,67.336,67.336
			C285.491,205.314,255.281,235.524,218.155,235.524z"/>
		<path style="fill:#010002;" d="M218.155,139.983c-15.55,0-28.205,12.656-28.205,28.211c0,15.562,12.656,28.223,28.205,28.223
			s28.211-12.662,28.211-28.223C246.36,152.633,233.704,139.983,218.155,139.983z"/>
	</g>
</g>
<g>
</g>
<g>
</g>
<g>
</g>
<g>
</g>
<g>
</g>
<g>
</g>
<g>
</g>
<g>
</g>
<g>
</g>
<g>
</g>
<g>
</g>
<g>
</g>
<g>
</g>
<g>
</g>
<g>
</g>
</svg>
